<svg xmlns="http://www.w3.org/2000/svg" viewBox="0 0 64 64" aria-label="Bitcoin">
  <circle cx="32" cy="32" r="32" fill="#F7931A"></circle>
  <path fill="#FFFFFF" d="M46.1 27.9c.6-4.1-2.5-6.3-6.8-7.8l1.4-5.6-3.4-.85-1.36 5.46c-.9-.22-1.82-.43-2.74-.64l1.37-5.5-3.4-.85-1.4 5.6c-.74-.17-1.47-.34-2.18-.51l-4.69-1.17-.9 3.62s2.52.58 2.47.61c1.38.34 1.62 1.26 1.58 1.99l-1.58 6.34c.1.02.22.06.36.11-.12-.03-.24-.06-.36-.09l-2.21 8.86c-.17.42-.6 1.05-1.57.81.03.04-2.47-.62-2.47-.62l-1.69 3.88 4.43 1.1c.82.21 1.62.42 2.41.62l-1.41 5.66 3.4.85 1.4-5.6c.93.25 1.83.49 2.71.71l-1.39 5.58 3.4.85 1.41-5.65c5.8 1.1 10.16.66 12-4.59 1.48-4.22-.07-6.66-3.13-8.25 2.23-.51 3.91-1.98 4.36-5.01zm-7.79 10.91c-1.05 4.22-8.16 1.94-10.46 1.37l1.88-7.51c2.3.57 9.69 1.71 8.58 6.14zm1.05-10.97c-.96 3.83-6.88 1.89-8.79 1.41l1.71-6.81c1.91.48 8.09 1.37 7.08 5.4z"></path>
</svg>